<svg width="254" height="150" viewBox="0 0 254 150" fill="none" xmlns="http://www.w3.org/2000/svg">
<path d="M45.9187 59.1889C45.6346 56.3243 44.4154 54.099 42.261 52.5128C40.1067 50.9266 37.1829 50.1335 33.4897 50.1335C30.9802 50.1335 28.8614 50.4886 27.1332 51.1989C25.4049 51.8854 24.0792 52.8442 23.1559 54.0753C22.2563 55.3063 21.8065 56.7031 21.8065 58.2656C21.7591 59.5677 22.0314 60.7041 22.6232 61.6747C23.2388 62.6454 24.0792 63.4858 25.1445 64.196C26.2099 64.8826 27.4409 65.4863 28.8377 66.0071C30.2345 66.5043 31.726 66.9304 33.3121 67.2855L39.8462 68.848C43.0186 69.5582 45.9305 70.5052 48.582 71.6889C51.2335 72.8726 53.5299 74.3286 55.4712 76.0568C57.4125 77.785 58.9158 79.821 59.9812 82.1648C61.0702 84.5085 61.6265 87.1955 61.6502 90.2259C61.6265 94.6766 60.4902 98.5355 58.2411 101.803C56.0157 105.046 52.796 107.567 48.582 109.366C44.3917 111.142 39.3372 112.03 33.4187 112.03C27.5475 112.03 22.4338 111.13 18.0778 109.331C13.7454 107.532 10.36 104.868 7.92152 101.341C5.50675 97.7898 4.24018 93.3982 4.1218 88.1662H19.0011C19.1668 90.6046 19.8652 92.6406 21.0962 94.2741C22.351 95.884 24.02 97.1032 26.1033 97.9318C28.2103 98.7367 30.5896 99.1392 33.2411 99.1392C35.8453 99.1392 38.1062 98.7604 40.0238 98.0028C41.9651 97.2453 43.4684 96.1918 44.5337 94.8423C45.5991 93.4929 46.1317 91.9422 46.1317 90.1903C46.1317 88.5568 45.6464 87.1837 44.6758 86.071C43.7288 84.9583 42.332 84.0114 40.4854 83.2301C38.6625 82.4489 36.4253 81.7386 33.7738 81.0994L25.8548 79.1108C19.7231 77.6193 14.8817 75.2874 11.3306 72.1151C7.77947 68.9427 6.01574 64.6695 6.03942 59.2955C6.01574 54.892 7.18762 51.045 9.55504 47.7543C11.9461 44.4635 15.225 41.8949 19.3917 40.0483C23.5584 38.2017 28.2932 37.2784 33.5962 37.2784C38.994 37.2784 43.7051 38.2017 47.7298 40.0483C51.7781 41.8949 54.9267 44.4635 57.1758 47.7543C59.4248 51.045 60.5849 54.8565 60.6559 59.1889H45.9187ZM96.3537 112.065C90.8376 112.065 86.0672 110.893 82.0426 108.55C78.0417 106.182 74.9522 102.892 72.7741 98.6776C70.5961 94.4399 69.5071 89.5275 69.5071 83.9403C69.5071 78.3059 70.5961 73.3816 72.7741 69.1676C74.9522 64.9299 78.0417 61.6392 82.0426 59.2955C86.0672 56.928 90.8376 55.7443 96.3537 55.7443C101.87 55.7443 106.628 56.928 110.629 59.2955C114.654 61.6392 117.755 64.9299 119.933 69.1676C122.111 73.3816 123.2 78.3059 123.2 83.9403C123.2 89.5275 122.111 94.4399 119.933 98.6776C117.755 102.892 114.654 106.182 110.629 108.55C106.628 110.893 101.87 112.065 96.3537 112.065ZM96.4247 100.347C98.9342 100.347 101.029 99.6364 102.71 98.2159C104.391 96.7718 105.658 94.8068 106.51 92.321C107.386 89.8352 107.824 87.0062 107.824 83.8338C107.824 80.6615 107.386 77.8324 106.51 75.3466C105.658 72.8608 104.391 70.8958 102.71 69.4517C101.029 68.0076 98.9342 67.2855 96.4247 67.2855C93.8916 67.2855 91.7609 68.0076 90.0327 69.4517C88.3281 70.8958 87.0379 72.8608 86.1619 75.3466C85.3097 77.8324 84.8835 80.6615 84.8835 83.8338C84.8835 87.0062 85.3097 89.8352 86.1619 92.321C87.0379 94.8068 88.3281 96.7718 90.0327 98.2159C91.7609 99.6364 93.8916 100.347 96.4247 100.347ZM172.774 59.1889C172.49 56.3243 171.271 54.099 169.116 52.5128C166.962 50.9266 164.038 50.1335 160.345 50.1335C157.836 50.1335 155.717 50.4886 153.989 51.1989C152.26 51.8854 150.935 52.8442 150.011 54.0753C149.112 55.3063 148.662 56.7031 148.662 58.2656C148.615 59.5677 148.887 60.7041 149.479 61.6747C150.094 62.6454 150.935 63.4858 152 64.196C153.065 64.8826 154.296 65.4863 155.693 66.0071C157.09 66.5043 158.581 66.9304 160.168 67.2855L166.702 68.848C169.874 69.5582 172.786 70.5052 175.438 71.6889C178.089 72.8726 180.385 74.3286 182.327 76.0568C184.268 77.785 185.771 79.821 186.837 82.1648C187.926 84.5085 188.482 87.1955 188.506 90.2259C188.482 94.6766 187.346 98.5355 185.097 101.803C182.871 105.046 179.652 107.567 175.438 109.366C171.247 111.142 166.193 112.03 160.274 112.03C154.403 112.03 149.289 111.13 144.933 109.331C140.601 107.532 137.215 104.868 134.777 101.341C132.362 97.7898 131.096 93.3982 130.977 88.1662H145.857C146.022 90.6046 146.721 92.6406 147.952 94.2741C149.206 95.884 150.875 97.1032 152.959 97.9318C155.066 98.7367 157.445 99.1392 160.097 99.1392C162.701 99.1392 164.962 98.7604 166.879 98.0028C168.821 97.2453 170.324 96.1918 171.389 94.8423C172.455 93.4929 172.987 91.9422 172.987 90.1903C172.987 88.5568 172.502 87.1837 171.531 86.071C170.584 84.9583 169.188 84.0114 167.341 83.2301C165.518 82.4489 163.281 81.7386 160.629 81.0994L152.71 79.1108C146.579 77.6193 141.737 75.2874 138.186 72.1151C134.635 68.9427 132.871 64.6695 132.895 59.2955C132.871 54.892 134.043 51.045 136.411 47.7543C138.802 44.4635 142.08 41.8949 146.247 40.0483C150.414 38.2017 155.149 37.2784 160.452 37.2784C165.849 37.2784 170.561 38.2017 174.585 40.0483C178.634 41.8949 181.782 44.4635 184.031 47.7543C186.28 51.045 187.44 54.8565 187.511 59.1889H172.774ZM223.209 112.065C217.693 112.065 212.923 110.893 208.898 108.55C204.897 106.182 201.808 102.892 199.63 98.6776C197.452 94.4399 196.363 89.5275 196.363 83.9403C196.363 78.3059 197.452 73.3816 199.63 69.1676C201.808 64.9299 204.897 61.6392 208.898 59.2955C212.923 56.928 217.693 55.7443 223.209 55.7443C228.725 55.7443 233.484 56.928 237.485 59.2955C241.509 61.6392 244.611 64.9299 246.789 69.1676C248.967 73.3816 250.056 78.3059 250.056 83.9403C250.056 89.5275 248.967 94.4399 246.789 98.6776C244.611 102.892 241.509 106.182 237.485 108.55C233.484 110.893 228.725 112.065 223.209 112.065ZM223.28 100.347C225.79 100.347 227.885 99.6364 229.566 98.2159C231.247 96.7718 232.513 94.8068 233.365 92.321C234.241 89.8352 234.679 87.0062 234.679 83.8338C234.679 80.6615 234.241 77.8324 233.365 75.3466C232.513 72.8608 231.247 70.8958 229.566 69.4517C227.885 68.0076 225.79 67.2855 223.28 67.2855C220.747 67.2855 218.616 68.0076 216.888 69.4517C215.184 70.8958 213.893 72.8608 213.017 75.3466C212.165 77.8324 211.739 80.6615 211.739 83.8338C211.739 87.0062 212.165 89.8352 213.017 92.321C213.893 94.8068 215.184 96.7718 216.888 98.2159C218.616 99.6364 220.747 100.347 223.28 100.347Z" fill="#10B981"/>
<path d="M80.8139 51V47.3182C80.8139 46.2727 81.0185 45.2045 81.4276 44.1136C81.8366 43.0227 82.3764 41.9943 83.0469 41.0284C83.7173 40.0625 84.4446 39.2557 85.2287 38.608L88.4332 40.5C87.7969 41.5 87.2741 42.5455 86.8651 43.6364C86.4673 44.7273 86.2685 45.9432 86.2685 47.2841V51H80.8139ZM109.889 40.0909V43.7727C109.889 44.8182 109.685 45.8864 109.276 46.9773C108.878 48.0568 108.344 49.0795 107.673 50.0455C107.003 51 106.27 51.8125 105.474 52.483L102.27 50.5909C102.838 49.6932 103.338 48.6989 103.77 47.608C104.213 46.517 104.435 45.25 104.435 43.8068V40.0909H109.889Z" fill="#047857"/>
</svg>
