<svg width="51" height="47" viewBox="0 0 51 47" fill="none" xmlns="http://www.w3.org/2000/svg">
<path d="M7.36041 25.587C8.42067 25.5941 9.32791 26.2292 9.73638 27.1368L9.74517 27.1329L13.4444 33.8448L8.84381 36.379L5.17486 29.6915C4.88368 29.2655 4.71327 28.7504 4.71685 28.1954C4.72638 26.7453 5.91029 25.5774 7.36041 25.587Z" fill="#059669"/>
<path d="M41.7412 25.5928C40.6871 25.5999 39.7849 26.228 39.373 27.127L39.3681 27.1251L35.6689 33.837L40.2695 36.3712L43.9433 29.6749C44.2249 29.2534 44.3882 28.7462 44.3847 28.2012C44.3752 26.7511 43.1913 25.5833 41.7412 25.5928Z" fill="#059669"/>
<path d="M25.0713 0.72168C35.0151 0.72168 43.0761 8.78273 43.0762 18.7266C43.0762 22.2654 42.0544 25.5652 40.291 28.3486H40.293C40.042 28.6579 40.2116 29.2563 40.5225 29.5967C40.5311 29.6055 41.1298 30.2165 42.1074 29.8936C43.2749 29.5078 43.9841 28.6299 45.7393 28.6299C48.3554 28.63 50.078 30.6572 50.0781 33.2734C50.0781 35.6779 48.2867 37.6637 45.9658 37.9697C45.2826 38.0598 44.4646 38.1513 43.5557 37.999C44.0788 38.7517 44.3867 39.6644 44.3867 40.6543C44.3867 43.2707 42.2649 45.3916 39.6484 45.3916C39.4417 45.3916 39.2378 45.3792 39.0381 45.3535C34.5202 44.6472 32.1096 42.4848 30.8975 40.3037C30.9044 40.4196 30.9082 40.5367 30.9082 40.6543C30.9082 43.8516 28.3154 46.4434 25.1182 46.4434C21.9211 46.4431 19.3291 43.8514 19.3291 40.6543C19.3291 40.4777 19.3137 40.2321 19.3291 40.0596C18.1493 42.2984 15.7556 44.6285 11.1182 45.3535C10.9185 45.3792 10.7145 45.3916 10.5078 45.3916C7.89138 45.3916 5.77051 43.2707 5.77051 40.6543C5.77057 39.6644 6.07744 38.7517 6.60059 37.999C5.6917 38.1513 4.87363 38.0598 4.19043 37.9697C1.86958 37.6637 0.0781445 35.6779 0.078125 33.2734C0.0782692 30.6572 1.8008 28.63 4.41699 28.6299C6.1722 28.6299 7.15596 30.1347 8.30957 30.1348C8.74829 30.1348 9.21182 30.2561 9.88477 29.6143C9.88477 29.6143 10.0596 29.4582 10.0596 29.0234C10.0596 28.8186 9.99748 28.6259 9.94824 28.499C8.1257 25.6844 7.06641 22.3294 7.06641 18.7266C7.06644 8.78276 15.1275 0.721716 25.0713 0.72168Z" fill="#34D399"/>
<path d="M6.40635 38.3129C3.2923 38.3951 1.75181 37.0671 1.12109 36.2145C4.54083 38.0365 7.75494 36.7401 8.93452 35.8641L6.40635 38.3129Z" fill="#6EE7B7"/>
<path d="M18.7191 41.8831C17.1341 44.6326 12.6428 45.3233 10.5463 45.3945C15.8977 44.8213 18.8022 39.8649 19.5855 37.4583C19.1699 39.7118 19.3659 41.6149 19.5681 42.2888C19.374 41.6419 18.8844 41.5074 18.7191 41.8831Z" fill="#6EE7B7"/>
<path d="M30.6014 37.4095C30.7631 38.4045 30.8305 39.684 30.844 40.1994C30.8863 41.0307 30.8031 41.9154 30.7046 42.2294C30.931 41.6472 31.2033 41.6633 31.3111 41.7442C32.605 43.7174 36.1361 44.7498 37.74 45.0193C33.2115 43.0138 31.0596 39.0942 30.6014 37.4095Z" fill="#6EE7B7"/>
<path d="M49.9913 34.2236C49.6408 35.6927 47.9777 38.6955 44.1284 38.9543C43.7786 38.3149 42.8629 36.8959 41.77 35.8629C41.6133 35.738 41.4816 35.6201 41.379 35.5175C41.5113 35.6261 41.6419 35.7419 41.77 35.8629C42.5191 36.4599 43.8408 37.2157 45.301 37.2157C46.6757 37.2157 48.2931 37.0944 49.9913 34.2236Z" fill="#6EE7B7"/>
<ellipse cx="20.9141" cy="15.8702" rx="1.87552" ry="2.25062" fill="#1A1A1A"/>
<ellipse cx="29.1664" cy="15.8702" rx="1.87552" ry="2.25062" fill="#1A1A1A"/>
<rect x="14.486" y="18.2373" width="9.36654" height="5.12273" rx="2.56136" transform="rotate(-0.71189 14.486 18.2373)" fill="#FFC5C5"/>
<line x1="18.1292" y1="19.9046" x2="16.2434" y2="21.8379" stroke="#FFA7A7" stroke-width="0.300083" stroke-linecap="round"/>
<line x1="20.251" y1="19.8782" x2="18.3652" y2="21.8115" stroke="#FFA7A7" stroke-width="0.300083" stroke-linecap="round"/>
<line x1="22.3728" y1="19.8518" x2="20.4869" y2="21.7851" stroke="#FFA7A7" stroke-width="0.300083" stroke-linecap="round"/>
<rect x="26.166" y="18.2373" width="9.36654" height="5.12273" rx="2.56136" transform="rotate(-0.71189 26.166 18.2373)" fill="#FFC5C5"/>
<line x1="29.8093" y1="19.9046" x2="27.9234" y2="21.8379" stroke="#FFA7A7" stroke-width="0.300083" stroke-linecap="round"/>
<line x1="31.9311" y1="19.8782" x2="30.0453" y2="21.8115" stroke="#FFA7A7" stroke-width="0.300083" stroke-linecap="round"/>
<line x1="34.0528" y1="19.8518" x2="32.167" y2="21.7851" stroke="#FFA7A7" stroke-width="0.300083" stroke-linecap="round"/>
<rect x="18.2886" y="17.48" width="13.5029" height="13.5039" rx="6.75146" fill="#047857"/>
<path d="M25.0405 17.48C28.7692 17.4802 31.7915 20.5032 31.7915 24.2319C31.7915 27.9607 28.7693 30.9836 25.0405 30.9839C21.3116 30.9839 18.2886 27.9609 18.2886 24.2319C18.2886 20.503 21.3116 17.48 25.0405 17.48ZM25.0552 19.731C23.6053 19.7314 22.4302 21.7472 22.4302 24.2329C22.4303 26.7184 23.6053 28.7334 25.0552 28.7339C26.5053 28.7339 27.681 26.7187 27.6812 24.2329C27.6812 21.7469 26.5053 19.731 25.0552 19.731Z" fill="white"/>
</svg>
